<svg width="101" height="28" viewBox="0 0 101 28" fill="none" xmlns="http://www.w3.org/2000/svg">
<path d="M11.7563 0V4.78738C10.0452 4.78866 8.40452 5.46898 7.19456 6.67893C5.98461 7.88889 5.30429 9.52957 5.303 11.2407H0.515625C0.518625 8.26041 1.70388 5.40303 3.81127 3.29564C5.91866 1.18825 8.77603 0.00300023 11.7563 0Z" fill="#1ABCC4"/>
<path d="M5.3125 27.2505V22.4631C7.02378 22.4618 8.66463 21.7815 9.87484 20.5716C11.0851 19.3617 11.7657 17.721 11.7674 16.0098H16.5548C16.5514 18.9902 15.3658 21.8476 13.2581 23.9549C11.1505 26.0623 8.29295 27.2475 5.3125 27.2505Z" fill="#1ABCC4"/>
<path d="M11.7658 11.2412H5.30273V16.0108H11.7658V11.2412Z" fill="#1ABCC4"/>
<path d="M24.5054 12.2547C24.35 12.2516 24.1957 12.2804 24.052 12.3395C23.9083 12.3985 23.7783 12.4865 23.67 12.5979C23.5598 12.7071 23.4726 12.8373 23.4137 12.9808C23.3547 13.1243 23.3252 13.2782 23.3268 13.4333C23.3219 13.6493 23.3807 13.8619 23.4959 14.0448C23.611 14.2276 23.7774 14.3724 23.9744 14.4614C24.4733 14.6459 24.9832 14.7995 25.5011 14.9212C26.1562 15.109 26.6365 15.3491 26.942 15.6416C27.3737 16.0528 27.5896 16.6465 27.5896 17.4225C27.5913 17.7912 27.5199 18.1566 27.3796 18.4976C27.2393 18.8386 27.0328 19.1484 26.7721 19.4091C26.5114 19.6699 26.2016 19.8763 25.8606 20.0166C25.5196 20.157 25.1542 20.2283 24.7855 20.2266H22.493C22.3878 20.2275 22.2835 20.2068 22.1866 20.1659C22.0898 20.125 22.0023 20.0646 21.9296 19.9886C21.8526 19.917 21.7915 19.83 21.7505 19.7331C21.7095 19.6363 21.6894 19.5319 21.6916 19.4268V19.409C21.6901 19.3025 21.7105 19.1969 21.7515 19.0986C21.7924 19.0004 21.853 18.9115 21.9296 18.8375C22.0023 18.7617 22.0899 18.7016 22.1868 18.661C22.2837 18.6203 22.3879 18.5999 22.493 18.6011H24.8745C25.0295 18.602 25.1832 18.5721 25.3266 18.5132C25.47 18.4542 25.6002 18.3675 25.7098 18.2578C25.8195 18.1482 25.9062 18.0179 25.9652 17.8746C26.0241 17.7312 26.054 17.5775 26.0531 17.4225C26.0531 16.9908 25.8373 16.667 25.4055 16.4511C25.3052 16.4047 24.7984 16.252 23.8853 15.9929C23.2377 15.8008 22.7569 15.5547 22.4428 15.2547C22.011 14.8229 21.7952 14.2137 21.7952 13.4268C21.7956 12.6831 22.0911 11.9699 22.6169 11.4439C23.1426 10.9179 23.8556 10.622 24.5993 10.6211H26.2183C26.433 10.6211 26.6389 10.7064 26.7907 10.8582C26.9425 11.01 27.0278 11.2159 27.0278 11.4306V11.4484C27.0297 11.5533 27.0097 11.6575 26.969 11.7543C26.9283 11.851 26.8678 11.9382 26.7914 12.0102C26.7174 12.0868 26.6285 12.1474 26.5303 12.1883C26.432 12.2292 26.3264 12.2496 26.2199 12.2482L24.5054 12.2547Z" fill="black"/>
<path d="M29.8237 7.02443C29.929 7.02379 30.0334 7.04402 30.1308 7.08397C30.2282 7.12391 30.3168 7.18278 30.3913 7.25715C30.4658 7.33152 30.5249 7.41993 30.565 7.51727C30.6051 7.6146 30.6256 7.71893 30.6252 7.82421V10.6283H32.2069C32.3119 10.6273 32.4159 10.6479 32.5126 10.6888C32.6092 10.7298 32.6964 10.7902 32.7687 10.8663C32.8454 10.9402 32.9061 11.029 32.9471 11.1273C32.988 11.2257 33.0083 11.3313 33.0067 11.4378V11.4556C33.0087 11.5607 32.9886 11.6651 32.9476 11.7619C32.9066 11.8587 32.8456 11.9458 32.7687 12.0174C32.6964 12.0935 32.6092 12.154 32.5126 12.1949C32.4159 12.2359 32.3119 12.2565 32.2069 12.2554H30.6252V17.7325C30.6233 17.8469 30.6449 17.9606 30.6886 18.0664C30.7323 18.1722 30.7972 18.2679 30.8793 18.3477C30.9604 18.4308 31.0578 18.4965 31.1653 18.5405C31.2727 18.5845 31.3881 18.6059 31.5043 18.6035H32.2069C32.3118 18.6021 32.4158 18.6224 32.5124 18.6631C32.6091 18.7038 32.6964 18.764 32.7687 18.8399C32.8453 18.9139 32.9059 19.0027 32.9468 19.101C32.9877 19.1993 33.0081 19.3049 33.0067 19.4114V19.4292C33.0088 19.5343 32.9887 19.6387 32.9477 19.7355C32.9067 19.8323 32.8457 19.9194 32.7687 19.991C32.6964 20.0671 32.6092 20.1275 32.5126 20.1685C32.4159 20.2094 32.3119 20.23 32.2069 20.229H31.5043C31.1755 20.2307 30.8496 20.1673 30.5454 20.0426C30.2412 19.9179 29.9647 19.7342 29.7317 19.5022C29.4988 19.2701 29.3141 18.9943 29.1881 18.6906C29.0622 18.3869 28.9976 18.0613 28.9981 17.7325V7.82421C28.9976 7.71906 29.018 7.61487 29.0581 7.51764C29.0981 7.42042 29.157 7.33208 29.2314 7.25772C29.3057 7.18337 29.394 7.12448 29.4913 7.08443C29.5885 7.04439 29.6927 7.024 29.7978 7.02443H29.8237Z" fill="black"/>
<path d="M35.8616 16.246C35.8616 16.8721 36.1102 17.4725 36.5529 17.9151C36.9956 18.3578 37.596 18.6065 38.2221 18.6065C38.8481 18.6065 39.4485 18.3578 39.8912 17.9151C40.3339 17.4725 40.5825 16.8721 40.5825 16.246V11.4376C40.5825 11.2229 40.6678 11.017 40.8196 10.8652C40.9715 10.7134 41.1774 10.6281 41.392 10.6281H41.4082C41.5136 10.6259 41.6182 10.646 41.7153 10.687C41.8124 10.728 41.8997 10.789 41.9716 10.8661C42.0484 10.94 42.1091 11.0288 42.15 11.1271C42.191 11.2254 42.2113 11.3311 42.2096 11.4376V16.246C42.2096 17.3036 41.7895 18.3179 41.0417 19.0657C40.2939 19.8135 39.2796 20.2336 38.2221 20.2336C37.1645 20.2336 36.1502 19.8135 35.4024 19.0657C34.6546 18.3179 34.2345 17.3036 34.2345 16.246V11.4376C34.2329 11.3311 34.2531 11.2254 34.2941 11.1271C34.335 11.0288 34.3957 10.94 34.4725 10.8661C34.5448 10.79 34.632 10.7297 34.7286 10.6887C34.8253 10.6478 34.9293 10.6271 35.0342 10.6281H35.0618C35.1667 10.627 35.2708 10.6476 35.3674 10.6886C35.4641 10.7295 35.5513 10.79 35.6236 10.8661C35.7003 10.94 35.761 11.0288 35.8019 11.1271C35.8429 11.2254 35.8632 11.3311 35.8616 11.4376V16.246Z" fill="black"/>
<path d="M52.5065 7.02447C52.6108 7.02325 52.7144 7.04281 52.8111 7.082C52.9078 7.12119 52.9958 7.17923 53.0699 7.25275C53.1462 7.32681 53.2066 7.41573 53.2472 7.51403C53.2879 7.61232 53.308 7.7179 53.3062 7.82425V15.4546C53.3009 16.5536 52.9193 17.6177 52.2249 18.4695C51.5305 19.3214 50.5652 19.9096 49.4898 20.1363C48.4144 20.3631 47.2938 20.2145 46.3145 19.7155C45.3353 19.2165 44.5566 18.397 44.1081 17.3937C43.6596 16.3903 43.5683 15.2636 43.8495 14.2012C44.1307 13.1387 44.7673 12.2046 45.6534 11.5545C46.5396 10.9043 47.6216 10.5774 48.7195 10.628C49.8174 10.6787 50.8648 11.1039 51.6872 11.8329V7.82425C51.6868 7.7191 51.7072 7.61491 51.7473 7.51768C51.7873 7.42045 51.8462 7.33211 51.9205 7.25776C51.9949 7.18341 52.0832 7.12451 52.1805 7.08447C52.2777 7.04443 52.3819 7.02404 52.487 7.02447H52.5065ZM46.2555 13.2042C45.8116 13.6492 45.5095 14.2159 45.3875 14.8325C45.2655 15.4492 45.329 16.0882 45.57 16.6688C45.811 17.2494 46.2187 17.7455 46.7415 18.0944C47.2644 18.4434 47.8789 18.6296 48.5075 18.6294C49.3485 18.6265 50.1541 18.291 50.7486 17.6962C51.3431 17.1014 51.6782 16.2955 51.6808 15.4546C51.6814 14.8258 51.4954 14.2109 51.1465 13.6878C50.7975 13.1647 50.3012 12.7569 49.7204 12.516C49.1395 12.275 48.5003 12.2118 47.8835 12.3343C47.2667 12.4568 46.7002 12.7596 46.2555 13.2042Z" fill="black"/>
<path d="M56.2059 8.95964C56.0779 8.96094 55.951 8.93669 55.8326 8.88834C55.7142 8.83998 55.6066 8.76848 55.5161 8.67801C55.4256 8.58755 55.3541 8.47995 55.3058 8.36151C55.2574 8.24306 55.2332 8.11617 55.2345 7.98824C55.2326 7.86216 55.2567 7.73705 55.3051 7.62064C55.3536 7.50423 55.4254 7.39901 55.5162 7.31149C55.6979 7.13253 55.9427 7.03223 56.1978 7.03223C56.4528 7.03223 56.6977 7.13253 56.8794 7.31149C56.9721 7.39794 57.0457 7.50278 57.0956 7.61931C57.1455 7.73583 57.1706 7.86149 57.1692 7.98824C57.1692 8.24587 57.0668 8.49295 56.8847 8.67512C56.7025 8.85729 56.4554 8.95964 56.1978 8.95964H56.2059ZM56.2156 10.6288C56.3207 10.6268 56.4251 10.6469 56.5219 10.6879C56.6187 10.7289 56.7057 10.7899 56.7774 10.8668C56.8541 10.9407 56.9148 11.0295 56.9557 11.1278C56.9967 11.2262 57.017 11.3318 57.0154 11.4383V19.4297C57.0129 19.641 56.9278 19.843 56.7783 19.9924C56.6289 20.1419 56.4269 20.227 56.2156 20.2295H56.1978C56.0913 20.2311 55.9856 20.2108 55.8873 20.1698C55.789 20.1289 55.7001 20.0682 55.6263 19.9915C55.5493 19.9199 55.4883 19.8328 55.4473 19.736C55.4062 19.6392 55.3861 19.5348 55.3883 19.4297V11.4383C55.3883 11.2236 55.4736 11.0177 55.6254 10.8659C55.7772 10.7141 55.9831 10.6288 56.1978 10.6288H56.2156Z" fill="black"/>
<path d="M63.6448 10.6286C64.7551 10.6296 65.8308 11.0156 66.6885 11.7207C67.5462 12.4257 68.133 13.4063 68.3489 14.4955C68.5648 15.5846 68.3965 16.7149 67.8726 17.6939C67.3487 18.6728 66.5016 19.4399 65.4757 19.8645C64.4497 20.289 63.3083 20.3448 62.2458 20.0223C61.1834 19.6998 60.2656 19.0189 59.6488 18.0957C59.0319 17.1725 58.7542 16.064 58.8629 14.959C58.9716 13.854 59.46 12.8208 60.2449 12.0355C60.6852 11.5808 61.2141 11.2214 61.7989 10.9794C62.3838 10.7374 63.012 10.618 63.6448 10.6286ZM63.6448 12.2735C62.8019 12.2735 61.9936 12.6083 61.3976 13.2043C60.8015 13.8003 60.4667 14.6087 60.4667 15.4516C60.4667 16.2945 60.8015 17.1028 61.3976 17.6988C61.9936 18.2948 62.8019 18.6297 63.6448 18.6297C64.4877 18.6297 65.296 18.2948 65.8921 17.6988C66.4881 17.1028 66.8229 16.2945 66.8229 15.4516C66.8229 14.6087 66.4881 13.8003 65.8921 13.2043C65.296 12.6083 64.4877 12.2735 63.6448 12.2735Z" fill="black"/>
<path d="M71.1188 7.02444C71.2241 7.02358 71.3285 7.04367 71.4259 7.08356C71.5233 7.12345 71.6118 7.18233 71.6863 7.25677C71.7607 7.33121 71.8196 7.41972 71.8595 7.51714C71.8993 7.61457 71.9194 7.71896 71.9186 7.82423V19.4292C71.9206 19.5342 71.9006 19.6384 71.8599 19.7351C71.8192 19.8319 71.7587 19.9191 71.6822 19.991C71.6095 20.067 71.522 20.1273 71.4251 20.1683C71.3282 20.2092 71.224 20.2299 71.1188 20.229H71.0929C70.9877 20.2299 70.8835 20.2092 70.7866 20.1683C70.6897 20.1273 70.6022 20.067 70.5295 19.991C70.453 19.9191 70.3925 19.8319 70.3517 19.7351C70.311 19.6384 70.2911 19.5342 70.2931 19.4292V7.82423C70.2922 7.71896 70.3123 7.61457 70.3522 7.51714C70.3921 7.41972 70.451 7.33121 70.5254 7.25677C70.5999 7.18233 70.6884 7.12345 70.7858 7.08356C70.8832 7.04367 70.9876 7.02358 71.0929 7.02444H71.1188Z" fill="black"/>
<path d="M82.9264 13.433C82.9715 13.5287 82.997 13.6324 83.0014 13.7381C83.0058 13.8438 82.989 13.9493 82.9521 14.0484C82.9151 14.1475 82.8587 14.2382 82.7862 14.3152C82.7137 14.3922 82.6265 14.4539 82.5297 14.4967L79.2917 15.9538C77.6339 16.7093 76.5583 17.195 76.0651 17.4109C76.3535 17.7984 76.7309 18.111 77.1653 18.3223C77.5998 18.5336 78.0786 18.6374 78.5616 18.6251C79.2215 18.6247 79.8648 18.4186 80.4022 18.0356C80.9396 17.6526 81.3442 17.1117 81.5599 16.488C81.6076 16.3227 81.7103 16.1786 81.851 16.0797C81.9918 15.9807 82.1621 15.9329 82.3338 15.944C82.4635 15.9409 82.5919 15.9706 82.7071 16.0303C82.8223 16.09 82.9206 16.1778 82.9928 16.2856C83.07 16.3889 83.1195 16.5102 83.1365 16.6381C83.1535 16.7659 83.1375 16.896 83.0899 17.0158C82.7749 17.9472 82.1716 18.7541 81.3673 19.3196C80.5538 19.9154 79.5698 20.2328 78.5616 20.2247C77.8136 20.2258 77.0758 20.0522 76.4068 19.7176C75.7379 19.383 75.1564 18.8967 74.7087 18.2975C74.2611 17.6984 73.9596 17.0029 73.8284 16.2665C73.6971 15.5302 73.7398 14.7734 73.9529 14.0565C74.1661 13.3395 74.5438 12.6823 75.0559 12.1372C75.5681 11.5922 76.2005 11.1743 76.9028 10.917C77.6051 10.6597 78.3578 10.5701 79.1009 10.6553C79.844 10.7404 80.5569 10.9981 81.1827 11.4076C81.9476 11.8999 82.5532 12.6034 82.9264 13.433ZM78.5648 12.2722C78.1471 12.2711 77.7333 12.3527 77.3473 12.5123C76.9613 12.6719 76.6107 12.9063 76.3157 13.202C76.0207 13.4978 75.7872 13.849 75.6286 14.2354C75.47 14.6218 75.3894 15.0358 75.3916 15.4535C75.3911 15.6096 75.403 15.7655 75.4272 15.9198L80.9917 13.4055C80.7014 13.0428 80.3315 12.7519 79.9106 12.5553C79.4897 12.3588 79.0292 12.2619 78.5648 12.2722Z" fill="black"/>
<path d="M92.9222 12.033C93.3768 12.4733 93.7363 13.0022 93.9783 13.587C94.2203 14.1718 94.3397 14.8 94.3291 15.4329V19.4334C94.3312 19.5385 94.3111 19.6429 94.2701 19.7397C94.2291 19.8365 94.1681 19.9236 94.0911 19.9952C94.0188 20.0712 93.9316 20.1316 93.8349 20.1726C93.7383 20.2135 93.6343 20.2341 93.5293 20.2332H93.5002C93.3952 20.2341 93.2912 20.2135 93.1945 20.1726C93.0979 20.1316 93.0107 20.0712 92.9384 19.9952C92.8614 19.9236 92.8004 19.8365 92.7593 19.7397C92.7183 19.6429 92.6983 19.5385 92.7004 19.4334V19.0287C91.9982 19.6483 91.1301 20.0489 90.203 20.1812C89.2759 20.3134 88.3303 20.1715 87.4829 19.7729C86.6355 19.3744 85.9232 18.7366 85.4339 17.9381C84.9445 17.1396 84.6995 16.2155 84.7289 15.2795C84.7584 14.3434 85.0612 13.4365 85.5998 12.6704C86.1384 11.9044 86.8895 11.3126 87.7603 10.9682C88.6311 10.6238 89.5837 10.5417 90.5007 10.732C91.4176 10.9224 92.2588 11.3768 92.9206 12.0394L92.9222 12.033ZM87.2784 13.1841C86.759 13.7037 86.4358 14.3873 86.3638 15.1185C86.2919 15.8497 86.4756 16.5832 86.8837 17.1941C87.2918 17.805 87.8991 18.2556 88.6021 18.469C89.3051 18.6825 90.0603 18.6457 90.7392 18.3649C91.4181 18.084 91.9787 17.5765 92.3255 16.9288C92.6722 16.2811 92.7837 15.5332 92.641 14.8125C92.4982 14.0918 92.1101 13.4428 91.5426 12.9762C90.9751 12.5095 90.2635 12.254 89.5288 12.2531C89.11 12.247 88.6945 12.3263 88.3075 12.4864C87.9206 12.6465 87.5703 12.8839 87.2784 13.1841Z" fill="black"/>
<path d="M100.2 10.6284C100.306 10.6268 100.412 10.6471 100.51 10.688C100.609 10.729 100.698 10.7897 100.771 10.8664C100.846 10.9417 100.904 11.031 100.943 11.1292C100.982 11.2273 101.002 11.3323 101 11.4379V11.4557C101.002 11.56 100.983 11.6636 100.944 11.7602C100.904 11.8568 100.846 11.9444 100.771 12.0175C100.698 12.0942 100.609 12.1549 100.51 12.1959C100.412 12.2368 100.306 12.2571 100.2 12.2555H99.6997C99.438 12.2508 99.1781 12.2998 98.9361 12.3994C98.6942 12.4991 98.4752 12.6474 98.2928 12.8351C98.1071 13.0191 97.96 13.2383 97.8602 13.4799C97.7604 13.7215 97.7098 13.9806 97.7116 14.242V19.4228C97.714 19.5278 97.6942 19.6322 97.6535 19.729C97.6127 19.8258 97.552 19.9129 97.4752 19.9846C97.4025 20.0606 97.315 20.1209 97.2181 20.1619C97.1212 20.2028 97.0169 20.2235 96.9118 20.2226H96.8859C96.7807 20.2235 96.6764 20.2028 96.5795 20.1619C96.4827 20.1209 96.3951 20.0606 96.3224 19.9846C96.246 19.9127 96.1854 19.8255 96.1447 19.7287C96.104 19.632 96.084 19.5278 96.0861 19.4228V14.242C96.083 13.767 96.1746 13.2961 96.3556 12.8569C96.5365 12.4177 96.8032 12.019 97.14 11.684C97.4722 11.3428 97.8706 11.0732 98.3108 10.8917C98.751 10.7102 99.2236 10.6206 99.6997 10.6284H100.2Z" fill="black"/>
</svg>
