<svg width="29" height="50" viewBox="0 0 29 50" fill="none" xmlns="http://www.w3.org/2000/svg">
<path d="M19.9711 0.5V9.10845C16.9309 9.11076 14.016 10.3341 11.8663 12.5098C9.7166 14.6854 8.5079 17.6357 8.50561 20.7125H0C0.00533043 15.3535 2.11114 10.2155 5.85529 6.42607C9.59943 2.63666 14.676 0.505395 19.9711 0.5Z" fill="#1ABCC4"/>
<path d="M8.52344 49.5001V40.8917C11.5638 40.8894 14.4791 39.6662 16.6292 37.4905C18.7794 35.3149 19.9887 32.3647 19.9918 29.2876H28.4974C28.4913 34.6469 26.3848 39.7849 22.6402 43.5742C18.8956 47.3636 13.8187 49.4947 8.52344 49.5001Z" fill="#1ABCC4"/>
<path d="M19.9905 20.7139H8.50781V29.2903H19.9905V20.7139Z" fill="#1ABCC4"/>
</svg>
