<svg width="32" height="32" viewBox="0 0 32 32" fill="none" xmlns="http://www.w3.org/2000/svg">
<g clip-path="url(#clip0_1_1584)">
<mask id="mask0_1_1584" style="mask-type:luminance" maskUnits="userSpaceOnUse" x="0" y="0" width="32" height="32">
<path d="M32 0H0V32H32V0Z" fill="white"/>
</mask>
<g mask="url(#mask0_1_1584)">
<path d="M16.0013 2.66675C8.65463 2.66675 2.66797 8.65341 2.66797 16.0001C2.66797 23.3467 8.65463 29.3334 16.0013 29.3334C23.348 29.3334 29.3346 23.3467 29.3346 16.0001C29.3346 8.65341 23.348 2.66675 16.0013 2.66675ZM22.3746 12.9334L14.8146 20.4934C14.628 20.6801 14.3746 20.7867 14.108 20.7867C13.8413 20.7867 13.588 20.6801 13.4013 20.4934L9.62797 16.7201C9.2413 16.3334 9.2413 15.6934 9.62797 15.3067C10.0146 14.9201 10.6546 14.9201 11.0413 15.3067L14.108 18.3734L20.9613 11.5201C21.348 11.1334 21.988 11.1334 22.3746 11.5201C22.7613 11.9067 22.7613 12.5334 22.3746 12.9334Z" fill="#37848C"/>
</g>
</g>
<defs>
<clipPath id="clip0_1_1584">
<rect width="32" height="32" fill="white"/>
</clipPath>
</defs>
</svg>
