<svg width="24" height="24" viewBox="0 0 24 24" fill="none" xmlns="http://www.w3.org/2000/svg">
<g clip-path="url(#clip0_1_562)">
<mask id="mask0_1_562" style="mask-type:luminance" maskUnits="userSpaceOnUse" x="0" y="0" width="24" height="24">
<path d="M24 0H0V24H24V0Z" fill="white"/>
</mask>
<g mask="url(#mask0_1_562)">
<path d="M9.46992 15.2799C9.27992 15.2799 9.08992 15.2099 8.93992 15.0599C8.11992 14.2399 7.66992 13.1499 7.66992 11.9999C7.66992 9.60992 9.60992 7.66992 11.9999 7.66992C13.1499 7.66992 14.2399 8.11992 15.0599 8.93992C15.1999 9.07992 15.2799 9.26992 15.2799 9.46992C15.2799 9.66992 15.1999 9.85992 15.0599 9.99992L9.99992 15.0599C9.84992 15.2099 9.65992 15.2799 9.46992 15.2799ZM11.9999 9.16992C10.4399 9.16992 9.16992 10.4399 9.16992 11.9999C9.16992 12.4999 9.29992 12.9799 9.53992 13.3999L13.3999 9.53992C12.9799 9.29992 12.4999 9.16992 11.9999 9.16992Z" fill="#1E1E1E" fill-opacity="0.8"/>
<path d="M5.60033 18.5105C5.43033 18.5105 5.25033 18.4505 5.11033 18.3305C4.04033 17.4205 3.08033 16.3005 2.26033 15.0005C1.20033 13.3505 1.20033 10.6605 2.26033 9.00047C4.70033 5.18047 8.25033 2.98047 12.0003 2.98047C14.2003 2.98047 16.3703 3.74047 18.2703 5.17047C18.6003 5.42047 18.6703 5.89047 18.4203 6.22047C18.1703 6.55047 17.7003 6.62047 17.3703 6.37047C15.7303 5.13047 13.8703 4.48047 12.0003 4.48047C8.77033 4.48047 5.68033 6.42047 3.52033 9.81047C2.77033 10.9805 2.77033 13.0205 3.52033 14.1905C4.27033 15.3605 5.13033 16.3705 6.08033 17.1905C6.39033 17.4605 6.43033 17.9305 6.16033 18.2505C6.02033 18.4205 5.81033 18.5105 5.60033 18.5105Z" fill="#1E1E1E" fill-opacity="0.8"/>
<path d="M12.0001 21.0195C10.6701 21.0195 9.37006 20.7495 8.12006 20.2195C7.74006 20.0595 7.56006 19.6195 7.72006 19.2395C7.88006 18.8595 8.32006 18.6795 8.70006 18.8395C9.76006 19.2895 10.8701 19.5195 11.9901 19.5195C15.2201 19.5195 18.3101 17.5795 20.4701 14.1895C21.2201 13.0195 21.2201 10.9795 20.4701 9.80951C20.1601 9.31951 19.8201 8.84951 19.4601 8.40951C19.2001 8.08951 19.2501 7.61951 19.5701 7.34951C19.8901 7.08951 20.3601 7.12951 20.6301 7.45951C21.0201 7.93951 21.4001 8.45951 21.7401 8.99951C22.8001 10.6495 22.8001 13.3395 21.7401 14.9995C19.3001 18.8195 15.7501 21.0195 12.0001 21.0195Z" fill="#1E1E1E" fill-opacity="0.8"/>
<path d="M12.6901 16.2703C12.3401 16.2703 12.0201 16.0203 11.9501 15.6603C11.8701 15.2503 12.1401 14.8603 12.5501 14.7903C13.6501 14.5903 14.5701 13.6703 14.7701 12.5703C14.8501 12.1603 15.2401 11.9003 15.6501 11.9703C16.0601 12.0503 16.3301 12.4403 16.2501 12.8503C15.9301 14.5803 14.5501 15.9503 12.8301 16.2703C12.7801 16.2603 12.7401 16.2703 12.6901 16.2703Z" fill="#1E1E1E" fill-opacity="0.8"/>
<path d="M1.99994 22.7507C1.80994 22.7507 1.61994 22.6807 1.46994 22.5307C1.17994 22.2407 1.17994 21.7607 1.46994 21.4707L8.93994 14.0007C9.22994 13.7107 9.70994 13.7107 9.99994 14.0007C10.2899 14.2907 10.2899 14.7707 9.99994 15.0607L2.52994 22.5307C2.37994 22.6807 2.18994 22.7507 1.99994 22.7507Z" fill="#1E1E1E" fill-opacity="0.8"/>
<path d="M14.5302 10.2195C14.3402 10.2195 14.1502 10.1495 14.0002 9.99945C13.7102 9.70945 13.7102 9.22945 14.0002 8.93945L21.4702 1.46945C21.7602 1.17945 22.2402 1.17945 22.5302 1.46945C22.8202 1.75945 22.8202 2.23945 22.5302 2.52945L15.0602 9.99945C14.9102 10.1495 14.7202 10.2195 14.5302 10.2195Z" fill="#1E1E1E" fill-opacity="0.8"/>
</g>
</g>
<defs>
<clipPath id="clip0_1_562">
<rect width="24" height="24" fill="white"/>
</clipPath>
</defs>
</svg>
