<svg width="24" height="24" viewBox="0 0 24 24" fill="none" xmlns="http://www.w3.org/2000/svg">
                    <g clip-path="url(#clip0_358_8784)">
                        <mask id="mask0_358_8784" style="mask-type:luminance" maskUnits="userSpaceOnUse" x="0" y="0" width="24" height="24">
                            <path d="M24 0H0V24H24V0Z" fill="white" />
                        </mask>
                        <g mask="url(#mask0_358_8784)">
                            <path d="M15 22.75H9C3.57 22.75 1.25 20.43 1.25 15V9C1.25 3.57 3.57 1.25 9 1.25H15C20.43 1.25 22.75 3.57 22.75 9V15C22.75 20.43 20.43 22.75 15 22.75ZM9 2.75C4.39 2.75 2.75 4.39 2.75 9V15C2.75 19.61 4.39 21.25 9 21.25H15C19.61 21.25 21.25 19.61 21.25 15V9C21.25 4.39 19.61 2.75 15 2.75H9Z" fill="white" />
                            <path d="M9 10.75C7.48 10.75 6.25 9.52 6.25 8C6.25 6.48 7.48 5.25 9 5.25C10.52 5.25 11.75 6.48 11.75 8C11.75 9.52 10.52 10.75 9 10.75ZM9 6.75C8.31 6.75 7.75 7.31 7.75 8C7.75 8.69 8.31 9.25 9 9.25C9.69 9.25 10.25 8.69 10.25 8C10.25 7.31 9.69 6.75 9 6.75Z" fill="white" />
                            <path d="M2.6688 19.6996C2.4288 19.6996 2.1888 19.5796 2.0488 19.3696C1.8188 19.0296 1.9088 18.5596 2.2588 18.3296L7.1888 15.0196C8.2688 14.2896 9.7588 14.3796 10.7388 15.2096L11.0688 15.4996C11.5688 15.9296 12.4188 15.9296 12.9088 15.4996L17.0688 11.9296C18.1288 11.0196 19.7988 11.0196 20.8688 11.9296L22.4988 13.3296C22.8088 13.5996 22.8488 14.0696 22.5788 14.3896C22.3088 14.6996 21.8388 14.7396 21.5188 14.4696L19.8888 13.0696C19.3888 12.6396 18.5388 12.6396 18.0388 13.0696L13.8788 16.6396C12.8188 17.5496 11.1488 17.5496 10.0788 16.6396L9.7488 16.3496C9.28879 15.9596 8.52879 15.9196 8.01879 16.2696L3.0888 19.5796C2.9588 19.6596 2.8088 19.6996 2.6688 19.6996Z" fill="white" />
                        </g>
                    </g>
                    <defs>
                        <clipPath id="clip0_358_8784">
                            <rect width="24" height="24" fill="white" />
                        </clipPath>
                    </defs>
                </svg>
