<svg width="213" height="139" viewBox="0 0 213 139" fill="none" xmlns="http://www.w3.org/2000/svg">
<path d="M136.913 53.7915L146.023 81.6614C146.671 83.6415 149.109 84.3499 150.715 83.0226L177.923 60.5592C177.923 60.5592 149.011 49.2798 149.011 49.895C149.011 50.5103 136.913 53.7915 136.913 53.7915Z" fill="#9ACBCE"/>
<path d="M208.701 0.225792C190.933 7.2541 133.581 30.7594 111.873 39.665C109.008 40.8414 109.179 44.9528 112.131 45.894L136.915 53.79L145.996 81.5712C146.361 82.6882 147.283 83.4086 148.312 83.6024C149.148 83.7594 150.38 61.1045 150.38 61.1045C150.38 61.1045 176.434 80.4293 188.793 89.5565C191.838 91.8041 196.186 90.1139 196.907 86.3977C200.588 67.4214 209.794 19.9728 212.94 3.75198C213.413 1.3128 211.01 -0.688431 208.701 0.225792Z" fill="white"/>
<path d="M148.311 83.6027C149.146 83.7597 150.378 61.1048 150.378 61.1048L193.183 20.8933C193.471 20.6214 193.126 20.1631 192.785 20.3667L136.913 53.7902L145.994 81.5714C146.36 82.6885 147.281 83.4089 148.311 83.6027Z" fill="#C5DAE0"/>
<path d="M0.00435744 138.911C1.25224 138.906 2.5168 138.873 3.7948 138.811L3.72149 137.31C2.46572 137.372 1.22407 137.405 0 137.408L0.00435744 138.911ZM7.57495 138.544C8.82043 138.43 10.0762 138.289 11.339 138.121L11.1413 136.632C9.89811 136.797 8.66293 136.935 7.43765 137.048L7.57495 138.544ZM15.0822 137.55C16.3177 137.336 17.5579 137.098 18.8001 136.836L18.4892 135.366C17.2654 135.625 16.0436 135.859 14.8269 136.069L15.0822 137.55ZM22.4879 135.983C23.707 135.678 24.9257 135.349 26.1419 134.996L25.7232 133.553C24.5246 133.9 23.3241 134.225 22.1229 134.526L22.4879 135.983ZM29.751 133.875C30.9455 133.48 32.1354 133.061 33.3184 132.62L32.7935 131.213C31.6282 131.647 30.456 132.059 29.2792 132.448L29.751 133.875ZM36.8384 131.229C38.0032 130.743 39.1591 130.234 40.304 129.702L39.6709 128.339C38.5445 128.863 37.4064 129.364 36.2598 129.843L36.8384 131.229ZM43.7078 128.034C44.8329 127.453 45.9449 126.85 47.0411 126.224L46.2958 124.92C45.2188 125.535 44.1258 126.128 43.0191 126.699L43.7078 128.034ZM50.2935 124.268C51.3661 123.588 52.4206 122.886 53.4549 122.16L52.5919 120.931C51.5779 121.642 50.5436 122.332 49.4906 122.998L50.2935 124.268ZM56.5044 119.905C57.5048 119.124 58.4828 118.32 59.4344 117.492L58.449 116.358C57.5176 117.169 56.5607 117.956 55.5805 118.72L56.5044 119.905ZM62.2338 114.915C63.1441 114.026 64.0259 113.114 64.8769 112.176L63.7645 111.166C62.9346 112.081 62.0738 112.972 61.1845 113.839L62.2338 114.915ZM67.3436 109.276C68.1352 108.283 68.8916 107.263 69.6119 106.22L68.3756 105.366C67.6755 106.381 66.9387 107.373 66.1681 108.34L67.3436 109.276ZM71.6601 103.012C72.3031 101.921 72.9055 100.805 73.4665 99.6648L72.1191 99.0014C71.5745 100.107 70.9894 101.19 70.366 102.25L71.6601 103.012ZM75.0153 96.1852C75.484 95.0118 75.9091 93.8143 76.2884 92.5936L74.8538 92.1482C74.4865 93.3306 74.0749 94.4904 73.6205 95.6278L75.0153 96.1852ZM77.2739 88.9082C77.5533 87.6604 77.7771 86.4052 77.9446 85.1469L76.4552 84.9486C76.2937 86.1625 76.0774 87.375 75.8077 88.5799L77.2739 88.9082ZM78.2766 81.3383C78.2999 80.7756 78.3112 80.2129 78.3112 79.6518C78.3112 78.9366 78.2924 78.2237 78.2541 77.5124L76.7541 77.592C76.7909 78.2763 76.809 78.9637 76.809 79.6518C76.809 80.1927 76.7977 80.7343 76.7759 81.2759L78.2766 81.3383ZM77.8635 73.7037C77.6697 72.4394 77.4121 71.1872 77.0899 69.9507L75.6365 70.3301C75.9452 71.5147 76.1923 72.7166 76.3786 73.9313L77.8635 73.7037ZM75.9272 66.2976C75.4757 65.1046 74.9582 63.9343 74.3739 62.7902L73.0362 63.473C73.595 64.5675 74.09 65.6876 74.5226 66.8294L75.9272 66.2976ZM72.4405 59.4758C71.7413 58.4181 70.9774 57.3912 70.1474 56.3989L68.9952 57.3627C69.7884 58.3115 70.5192 59.2933 71.1877 60.3044L72.4405 59.4758ZM67.5283 53.5961C67.3563 53.4316 67.1828 53.2679 67.0063 53.1056C66.1974 52.3604 65.3802 51.7001 64.5607 51.1217L63.6947 52.3491C64.4586 52.8877 65.2247 53.5075 65.9886 54.2106C66.1576 54.3661 66.3243 54.5231 66.4888 54.6809L67.5283 53.5961ZM61.1717 49.191C59.9016 48.6344 58.6375 48.264 57.3982 48.0695L57.1646 49.5539C58.2702 49.7274 59.4096 50.0594 60.5693 50.5673L61.1717 49.191ZM53.4294 48.0462C52.0931 48.2483 50.8208 48.6652 49.643 49.2714L50.3303 50.6071C51.3661 50.0745 52.48 49.7094 53.6547 49.5321L53.4294 48.0462ZM46.4387 51.6129C45.525 52.5196 44.7208 53.5728 44.0466 54.7492L45.3502 55.4967C45.9602 54.4315 46.6831 53.4872 47.497 52.6789L46.4387 51.6129ZM42.513 58.3565C42.1548 59.5592 41.9074 60.84 41.7842 62.1854L43.2799 62.3229C43.3947 61.0722 43.6239 59.8897 43.9527 58.7855L42.513 58.3565ZM41.7686 66.0647C41.8531 67.1269 42.0098 68.2169 42.2439 69.3309C42.2824 69.5135 42.322 69.6953 42.3628 69.8771L43.8286 69.5488C43.7893 69.373 43.7512 69.198 43.7142 69.0214C43.4926 67.969 43.3454 66.9421 43.2662 65.9452L41.7686 66.0647ZM43.365 73.5618C43.7526 74.772 44.1927 75.9649 44.6821 77.1405L46.0687 76.5628C45.5952 75.4255 45.1698 74.2724 44.7957 73.1035L43.365 73.5625V73.5618ZM46.2852 80.5946C46.8627 81.7206 47.485 82.8287 48.149 83.9172L49.4312 83.1344C48.786 82.0767 48.1818 81.001 47.622 79.9087L46.2852 80.5946ZM50.2432 87.0955C50.9733 88.1262 51.7409 89.1366 52.5423 90.1259L53.7095 89.1801C52.9276 88.2148 52.1803 87.23 51.469 86.2264L50.2432 87.0955ZM55.0224 93.0053C55.8742 93.9368 56.7552 94.8472 57.6641 95.7352L58.7141 94.6602C57.8248 93.7918 56.9633 92.9016 56.1311 91.9919L55.0224 93.0053ZM60.4454 98.3118C61.3926 99.1442 62.3637 99.954 63.3559 100.74L64.2896 99.5633C63.3161 98.7918 62.3645 97.9986 61.4369 97.1828L60.4454 98.3118ZM66.3836 103.023C67.4111 103.76 68.4567 104.472 69.5172 105.158L70.3337 103.898C69.2927 103.223 68.2667 102.524 67.2587 101.802L66.3836 103.023ZM72.7492 107.147C73.8436 107.786 74.9515 108.399 76.0699 108.985L76.7669 107.654C75.6688 107.078 74.5812 106.477 73.5063 105.849L72.7492 107.147ZM79.4678 110.667C80.6185 111.204 81.7768 111.713 82.941 112.191L83.5118 110.801C82.3701 110.332 81.233 109.833 80.1033 109.306L79.4678 110.667ZM86.4824 113.549C87.6819 113.977 88.8852 114.372 90.087 114.734L90.5196 113.295C89.3419 112.941 88.1634 112.553 86.9864 112.134L86.4824 113.549ZM93.7501 115.732C94.9932 116.036 96.2325 116.302 97.465 116.529L97.7377 115.052C96.5337 114.829 95.3222 114.569 94.1061 114.273L93.7501 115.732ZM101.224 117.106C102.5 117.26 103.766 117.371 105.017 117.436L105.095 115.936C103.88 115.873 102.649 115.765 101.405 115.614L101.224 117.106ZM108.834 117.487C110.115 117.452 111.388 117.361 112.647 117.215L112.474 115.723C111.259 115.864 110.03 115.951 108.792 115.986L108.834 117.487ZM116.423 116.602C117.679 116.338 118.917 116.016 120.128 115.635L119.677 114.201C118.514 114.567 117.324 114.877 116.114 115.132L116.423 116.602ZM123.721 114.299C124.9 113.79 126.046 113.219 127.155 112.587L126.411 111.281C125.351 111.885 124.255 112.432 123.125 112.92L123.721 114.299ZM130.375 110.496C131.406 109.739 132.391 108.92 133.327 108.038L132.297 106.945C131.407 107.783 130.468 108.564 129.485 109.286L130.375 110.496ZM135.958 105.233C136.767 104.255 137.522 103.218 138.218 102.123L136.951 101.316C136.288 102.359 135.569 103.345 134.8 104.276L135.958 105.233ZM140.079 98.7603C140.518 97.8401 140.919 96.8868 141.281 95.8997L139.871 95.3829C139.525 96.3256 139.142 97.2361 138.723 98.1127L140.079 98.7603Z" fill="white" fill-opacity="0.8"/>
</svg>
